<svg xmlns="http://www.w3.org/2000/svg" viewBox="0 0 101.58 113.69"><defs><style>.cls-1{fill:#fff;}</style></defs><g id="Layer_2" data-name="Layer 2"><g id="Layer_1-2" data-name="Layer 1"><path class="cls-1" d="M34.09,60.18A101.6,101.6,0,0,0,1.76,65.69,62.27,62.27,0,0,1,0,51.38V49.54c9.16-2.38,28.58-5.94,48.93-.29,25.27,7,40.33,16.55,50.6,17.59a69.3,69.3,0,0,1-3.19,9.71c-5.75-2.38-9.09-4.84-20.39-9.36C64,62.42,53,60.05,34.09,60.18Zm56,27.9a59.81,59.81,0,0,0,4.26-7.23c-21.56-9.52-35.17-10.1-54.76-8.64A89.29,89.29,0,0,0,7.14,80.75,60,60,0,0,0,17.62,95.64C21.5,93.43,32,88.32,49.76,86,70.08,83.26,84.84,86.59,90.12,88.08ZM31.34,106.2a73.67,73.67,0,0,0,19.45,7.49C66.94,109.86,78,102.45,85.46,94,55,90.07,36.71,102,31.34,106.2ZM101,59.27c-8.65.44-20-2.94-40.06-12.67C18.73,26.13,0,34,0,34H0V0H101.57V51.38A52.89,52.89,0,0,1,101,59.27ZM50.15,26.82l-3.24-3.27a13,13,0,0,1-2.73,2,7.07,7.07,0,0,1-3.36.73,6.34,6.34,0,0,1-2.73-.58A6.24,6.24,0,0,1,36,24.11,7.24,7.24,0,0,1,34.6,21.8,8,8,0,0,1,34.11,19v-.06a7.85,7.85,0,0,1,.49-2.8A7.33,7.33,0,0,1,36,13.82a6.45,6.45,0,0,1,4.83-2.12,7.09,7.09,0,0,1,3.16.7,11.88,11.88,0,0,1,2.76,1.92L50,10.58a13.52,13.52,0,0,0-1.72-1.46,10.59,10.59,0,0,0-2-1.12,12.49,12.49,0,0,0-2.44-.73,15,15,0,0,0-3-.26A12.36,12.36,0,0,0,36,8a11.56,11.56,0,0,0-3.81,2.58A12,12,0,0,0,28.78,19v.07a12.27,12.27,0,0,0,.89,4.66,11.7,11.7,0,0,0,2.48,3.79A11.58,11.58,0,0,0,35.92,30a12,12,0,0,0,4.74.93,15.65,15.65,0,0,0,3-.28,11.29,11.29,0,0,0,2.5-.83,10.74,10.74,0,0,0,2.1-1.31A15.59,15.59,0,0,0,50.15,26.82Zm20.26-3.17A6.49,6.49,0,0,0,69.93,21a5.36,5.36,0,0,0-1.43-1.9,8.81,8.81,0,0,0-2.32-1.39,24.93,24.93,0,0,0-3.13-1c-1-.26-1.82-.49-2.47-.69A7.46,7.46,0,0,1,59,15.38a2,2,0,0,1-.78-.75,2.1,2.1,0,0,1-.21-1v-.07a1.78,1.78,0,0,1,.74-1.44A3.66,3.66,0,0,1,61,11.57a7.89,7.89,0,0,1,3,.61A16.62,16.62,0,0,1,67,13.86L69.68,10a13.5,13.5,0,0,0-3.92-2.19,14,14,0,0,0-4.68-.76,10.29,10.29,0,0,0-3.27.5A7.52,7.52,0,0,0,55.26,9a6.63,6.63,0,0,0-1.66,2.2A6.8,6.8,0,0,0,53,14.05v.07A6.63,6.63,0,0,0,53.56,17a5.28,5.28,0,0,0,1.54,1.93,8.81,8.81,0,0,0,2.42,1.31,29.86,29.86,0,0,0,3.19,1,24.67,24.67,0,0,1,2.37.69,7.33,7.33,0,0,1,1.42.67,1.75,1.75,0,0,1,.7.71,2,2,0,0,1,.18.87v.07a1.82,1.82,0,0,1-.87,1.6,4.45,4.45,0,0,1-2.47.58,8.65,8.65,0,0,1-3.65-.76,15.11,15.11,0,0,1-3.26-2.05l-3,3.61A13.72,13.72,0,0,0,56.75,30a15.26,15.26,0,0,0,5.19.91,11.58,11.58,0,0,0,3.44-.48A7.57,7.57,0,0,0,68,29a6.22,6.22,0,0,0,1.75-2.24,7.32,7.32,0,0,0,.62-3.07Zm23.94-6.42H84.29v4.4h5.12V25a7.94,7.94,0,0,1-4.79,1.4,7,7,0,0,1-2.83-.55,6.61,6.61,0,0,1-2.22-1.54,6.84,6.84,0,0,1-1.45-2.34A8.16,8.16,0,0,1,77.61,19v-.07a7.69,7.69,0,0,1,.51-2.8,7.18,7.18,0,0,1,1.42-2.29,6.91,6.91,0,0,1,2.12-1.55,5.86,5.86,0,0,1,2.59-.59,9.41,9.41,0,0,1,1.83.17,8.55,8.55,0,0,1,1.53.46,9.6,9.6,0,0,1,1.38.73,14.18,14.18,0,0,1,1.32,1l3.21-3.87a15.67,15.67,0,0,0-1.86-1.35,10.82,10.82,0,0,0-2-1,14.26,14.26,0,0,0-2.36-.61A17.46,17.46,0,0,0,84.42,7,12.24,12.24,0,0,0,79.56,8a11.91,11.91,0,0,0-3.84,2.58A11.93,11.93,0,0,0,72.28,19v.07a12.53,12.53,0,0,0,.89,4.76,11.29,11.29,0,0,0,2.5,3.78,11.61,11.61,0,0,0,3.84,2.48,13.28,13.28,0,0,0,4.94.89,13.91,13.91,0,0,0,5.64-1.08,17,17,0,0,0,4.26-2.59Z"/></g></g></svg>